<svg preserveAspectRatio="none" width="100%" height="100%" overflow="visible" style="display: block;" viewBox="0 0 60 50.2326" fill="none" xmlns="http://www.w3.org/2000/svg">
<g id="logo-white.svg" clip-path="url(#clip0_9_3)">
<path id="Vector" d="M23.7209 49.5493C23.5134 51.4128 19.6254 48.9061 18.6167 48.6102C12.6642 51.1939 10.3739 49.4221 8.61342 47.5194C9.65358 48.1455 10.0409 47.3605 12.5459 47.3043C15.8365 47.2651 16.4 49.0589 18.2764 48.4365C16.4282 47.4855 14.6958 46.3192 13.1143 44.9614C12.6425 44.756 12.0006 44.9309 11.507 44.822C6.29178 46.8506 3.57435 41.5291 3.57435 41.5291C4.44798 42.3777 6.15784 42.0904 8.61223 42.6076C11.6796 43.3266 10.7009 44.8233 12.7257 44.6251C10.7602 42.8761 9.05798 40.8447 7.67344 38.5956C1.54836 37.4524 0.725408 33.6557 0.586642 31.8839C1.05966 33.0112 2.34838 33.1213 4.40334 34.574C6.86374 36.2858 5.97804 37.6077 7.41998 38.1701C6.06922 35.9077 5.05975 33.4534 4.42506 30.8885C4.06618 30.4785 3.72943 30.049 3.41628 29.6022C-2.15129 27.6824 0.76161 21.3423 0.76161 21.3423C0.688003 22.5651 1.3746 23.4125 2.57161 25.6441C4.12822 28.443 3.09531 28.9675 4.29112 30.3358C3.61478 27.3535 3.44341 24.2764 3.78432 21.236C3.86757 20.5634 3.39939 19.8909 3.32337 19.2636C-0.65864 15.5953 3.76259 10.6895 3.84948 10.5966C3.33906 11.7068 3.6371 12.7719 3.9436 15.292C4.37679 18.5238 3.24373 18.5935 3.90257 20.3837C4.13189 18.7734 4.50631 17.1877 5.02115 15.6466C5.6631 13.7061 6.85167 11.9294 6.66825 9.84216C4.95117 3.79674 10.0385 1.85497 10.0385 1.85497C9.18782 2.7268 9.61737 4.1978 8.91147 6.68615C7.89426 9.96809 6.67067 9.10235 6.81185 11.5026C8.2357 8.75142 10.3776 6.24472 12.4965 4.06696C14.5478 -1.19097 20.1371 0.154084 20.1371 0.154084C18.4007 0.171202 15.5071 5.37289 12.8006 4.22348C10.76 5.94106 9.04542 8.02116 7.74098 10.3618C12.1647 5.85834 15.6024 5.83755 17.6079 6.84144C16.0791 6.81698 12.4771 10.3716 9.61856 9.36035C8.20437 10.2469 7.70358 10.5832 7.50084 10.7886C6.13405 13.2777 5.17515 15.9751 4.66157 18.7757C7.671 12.7841 9.45565 12.6472 12.4289 12.9149C11.2416 13.1473 11.3537 14.5828 9.30963 16.0526C7.36088 17.4539 6.39193 17.5199 6.02148 17.4906C4.42264 19.1707 4.48781 19.4006 4.31887 21.2897C4.14468 23.3589 4.20582 25.4415 4.50108 27.4965C4.99822 20.8043 7.62754 19.7246 10.0517 18.9909C9.02365 19.6378 9.13228 21.2604 8.0294 23.5409C7.09061 25.4826 5.63655 25.8519 5.27938 25.9546C3.72881 28.9345 5.82479 32.5845 6.98198 35.403C4.921 29.3184 7.49121 26.8717 9.10933 25.6844C8.38535 26.6626 9.05386 27.7766 8.8523 30.3077C8.68095 32.4622 7.40435 33.6984 7.10993 33.9259C6.77323 37.2824 10.4379 40.6511 12.5894 42.9121C8.36602 38.252 9.93475 34.739 10.888 33.2118C10.5984 34.4027 11.2005 35.2831 12.3613 37.9464C13.2229 39.9236 12.4566 41.2478 12.2708 41.5731C13.2965 44.5665 16.0924 45.5667 18.5455 47.045C14.3077 44.2583 14.7083 41.0387 15.2091 39.6412C15.2163 40.645 15.9837 40.6597 17.3231 43.0979C18.6505 45.7269 17.3606 45.7734 18.9992 47.2688C20.3417 47.9021 21.7343 48.4204 23.1622 48.818C23.3227 48.8589 23.465 48.9532 23.5664 49.0857C23.6677 49.2184 23.7221 49.3816 23.7209 49.5493Z" fill="var(--fill-0, white)"/>
<path id="Vector_2" d="M50.5194 9.23365C48.4789 10.8452 44.042 6.24839 42.4534 6.70709C44.8899 5.5076 48.1329 5.45607 52.4151 10.2381C51.0981 7.89035 49.3671 5.80398 47.3069 4.08119C44.6706 4.69443 41.2351 0.524403 39.7817 0.220236C39.7817 0.220236 45.5417 -1.3558 47.6139 3.9242C49.7532 6.11592 51.9144 8.62165 53.3531 11.3824C53.5395 9.13675 52.2373 9.75119 51.2322 6.55132C50.5146 4.01987 50.9544 2.57998 50.0955 1.7055C50.0955 1.7055 55.4388 4.38658 53.4981 9.71686C53.3129 11.8117 54.5129 13.5926 55.1611 15.539C55.6804 17.0849 56.0584 18.6753 56.2903 20.2903C57.1163 18.4383 55.3706 18.4286 55.7105 15.187C56.0199 12.6592 56.8593 11.5873 56.344 10.4736C56.4317 10.5668 60.5567 14.521 56.9909 18.8406C56.9068 19.5042 56.3269 20.4437 56.4098 21.1452C56.7533 24.1949 56.5803 27.2812 55.8981 30.2727C57.2077 28.9236 56.048 28.1877 57.5683 25.3508C58.778 23.1125 59.537 22.4796 59.4627 21.2519C60.3849 23.2044 60.653 27.0164 55.7653 30.827C55.1228 33.3993 54.1024 35.8606 52.7379 38.1295C54.1877 37.5764 53.347 36.1254 55.831 34.4096C57.9021 32.9526 59.1581 32.955 59.6357 31.8241C59.7868 33.1733 58.1933 37.7664 52.4796 38.5551C51.0829 40.8117 49.3647 42.8498 47.38 44.6041C49.3804 44.7795 48.6543 43.2758 51.7889 42.5718C54.2669 42.053 55.7373 42.3498 56.6193 41.4987C55.401 43.8388 53.3008 45.8576 46.9877 44.9401C45.3912 46.3026 43.6421 47.4728 41.776 48.4271C43.7253 49.0759 43.3598 47.4458 46.5869 47.4557C49.1161 47.5121 50.4854 48.1351 51.5318 47.5072C50.1759 49.2672 46.9719 51.1989 41.4325 48.6C40.3044 48.9005 36.6643 51.4209 36.2793 49.5431C36.5168 48.3105 39.934 48.1327 41.0378 47.257C42.5923 46.0771 41.3752 45.3228 42.708 42.8723C43.8215 41.1111 44.8582 40.6132 44.8656 39.6062C45.4296 40.7358 45.6135 44.5121 41.497 47.0325C43.9787 45.5473 46.7977 44.5477 47.832 41.544C47.6444 41.2166 47.0743 39.551 47.7479 37.4967C48.5373 35.0756 49.5205 34.3568 49.2281 33.1623C50.1723 34.2661 51.6257 38.6324 47.5603 42.8514C49.9079 40.244 53.0888 37.7407 52.9645 33.8982C52.6661 33.67 51.5428 32.7183 51.3698 30.5572C51.1664 28.0184 51.7536 26.6092 51.0239 25.6231C52.4212 26.3136 55.3243 29.8642 53.1717 35.3712C54.3668 32.2767 56.4488 29.2792 54.8906 25.8941C54.5251 25.7911 53.2374 25.6366 52.2896 23.6865C51.1774 21.3991 51.1103 19.5557 50.0724 18.9032C52.1044 19.2442 55.4583 21.2421 55.6764 27.4346C55.9739 25.3733 56.0355 23.2845 55.8603 21.209C55.7288 19.4429 55.6873 18.9621 54.1402 17.3983C51.46 18.0029 48.7031 12.9719 47.1644 12.6052C49.4657 12.1993 52.9621 12.9119 55.5143 18.6874C54.9904 15.8362 54.0025 13.0916 52.5905 10.5644" fill="var(--fill-0, white)"/>
<path id="Vector_3" d="M25.1678 34.8837V21.041L34.8322 34.8837H38.3721V15.3488H34.8322V29.1916L25.1959 15.3488H21.6279V34.8837H25.1678Z" fill="var(--fill-0, white)"/>
</g>
<defs>
<clipPath id="clip0_9_3">
<rect width="60" height="50.2326" fill="white"/>
</clipPath>
</defs>
</svg>
