<svg preserveAspectRatio="none" width="100%" height="100%" overflow="visible" style="display: block;" viewBox="0 0 37 30.5652" fill="none" xmlns="http://www.w3.org/2000/svg">
<g id="quotes.svg">
<path id="Vector" d="M16.619 23.1786C16.619 26.6346 13.4329 29.7932 9.4498 29.7932C2.86818 29.7932 0 24.9241 0 18.4245C0 10.9643 7.51954 3.76971 14.3418 0.771954L16.1643 3.70715C10.5431 6.43104 6.34174 10.1242 5.74637 16.3161H8.07179C10.562 16.3161 13.1488 16.7176 14.8758 18.5072C16.1071 19.785 16.619 21.4119 16.619 23.1786ZM37 23.1786C37 26.6346 33.8139 29.7932 29.8308 29.7932C23.2492 29.7932 20.381 24.924 20.381 18.4245C20.381 10.9642 27.9006 3.7697 34.7228 0.771946L36.5452 3.70714C30.9241 6.43103 26.7228 10.1242 26.1274 16.3161C28.6636 16.3161 30.7678 16.2242 32.642 16.8948C35.5609 17.9393 37 20.1956 37 23.1786Z" fill="var(--fill-0, #536941)"/>
</g>
</svg>
